<?xml version="1.0" standalone="no"?>
<!DOCTYPE svg PUBLIC "-//W3C//DTD SVG 20010904//EN"
 "http://www.w3.org/TR/2001/REC-SVG-20010904/DTD/svg10.dtd">
<svg version="1.0" xmlns="http://www.w3.org/2000/svg"
 width="700.000000pt" height="700.000000pt" viewBox="0 0 700.000000 700.000000"
 preserveAspectRatio="xMidYMid meet">
<metadata>
Created by potrace 1.11, written by Peter Selinger 2001-2013
</metadata>
<g transform="translate(0.000000,700.000000) scale(0.100000,-0.100000)"
fill="#000000" stroke="none">
<path d="M3278 6166 c-1 -2 -34 -6 -73 -10 -145 -14 -173 -18 -289 -42 -744
-157 -1362 -600 -1764 -1264 -44 -72 -161 -318 -195 -410 -71 -192 -137 -460
-152 -620 -3 -36 -8 -85 -11 -110 -6 -49 -6 -376 0 -425 2 -16 7 -59 10 -95
12 -107 53 -322 76 -395 5 -16 21 -68 36 -115 108 -344 291 -663 554 -964 49
-56 216 -216 295 -281 173 -144 394 -279 630 -385 67 -31 334 -123 385 -134
341 -72 415 -81 675 -81 184 1 275 6 393 26 37 6 79 12 94 14 49 7 202 45 303
76 521 159 1010 501 1334 934 29 39 58 77 64 85 54 68 262 444 274 495 2 6 19
52 38 103 64 166 131 434 149 597 24 202 24 489 1 653 -19 141 -23 165 -40
238 -8 34 -16 73 -19 85 -32 165 -157 477 -273 684 -150 266 -385 543 -636
746 -294 238 -598 394 -992 508 -85 25 -247 55 -410 76 -51 7 -450 16 -457 11z"/>
</g>
</svg>
